<?xml version="1.0" encoding="UTF-8"?>
<svg width="38px" height="51px" viewBox="0 0 38 51" version="1.1" xmlns="http://www.w3.org/2000/svg" xmlns:xlink="http://www.w3.org/1999/xlink">
    <!-- Generator: Sketch 59.1 (86144) - https://sketch.com -->
    <title>logo</title>
    <desc>Created with Sketch.</desc>
    <g id="Mobile" stroke="none" stroke-width="1" fill="none" fill-rule="evenodd">
        <g id="Start" transform="translate(-169.000000, -52.000000)" fill="#FFFFFF">
            <g id="logo" transform="translate(44.000000, 52.000000)">
                <path d="M143.998406,28.5085524 C149.250592,28.5085524 153.50833,24.2508143 153.50833,18.9986283 C153.50833,13.7464422 149.250592,9.48870412 143.998406,9.48870412 C138.74622,9.48870412 134.488482,13.7464422 134.488482,18.9986283 C134.488482,24.2508143 138.74622,28.5085524 143.998406,28.5085524 Z M130.563217,5.56498541 C123.143687,12.9845148 123.146393,25.0156409 130.565923,32.4351703 C134.270662,36.1399098 139.127334,37.995372 143.984393,37.9980778 L143.98478,50.8803131 C154.33012,37.0199798 159.763362,29.657307 160.284505,28.7922948 C164.685041,21.4881247 163.733195,11.8644507 157.434175,5.56575852 C150.015032,-1.85338434 137.985839,-1.85686333 130.563217,5.56498541 Z"></path>
            </g>
        </g>
    </g>
</svg>